<svg width="60" height="85" viewBox="0 0 60 85" fill="none" xmlns="http://www.w3.org/2000/svg">
<path d="M6.3119 16.8407H0.40625V75.783C0.40625 80.4142 3.06379 84.2033 6.3119 84.2033H47.6514V75.783H6.3119V16.8407ZM53.5571 0H18.1232C14.8751 0 12.2175 3.78915 12.2175 8.42033V58.9423C12.2175 63.5735 14.8751 67.3627 18.1232 67.3627H53.5571C56.8052 67.3627 59.4627 63.5735 59.4627 58.9423V8.42033C59.4627 3.78915 56.8052 0 53.5571 0ZM50.6043 37.8915H21.076V29.4712H50.6043V37.8915ZM38.793 54.7322H21.076V46.3118H38.793V54.7322ZM50.6043 21.0508H21.076V12.6305H50.6043V21.0508Z" fill="white"/>
</svg>
