<svg width="72" height="68" viewBox="0 0 72 68" fill="none" xmlns="http://www.w3.org/2000/svg">
<path d="M14.3323 0V27.1881L21.4984 40.7821L28.6646 27.1881V10.1955H64.4953V40.7821H21.4984L28.5526 48.0039L27.4329 48.7473L17.9154 55.0133V47.5791H7.16614V10.1955H10.7492V3.39851H7.16614C3.20517 3.39851 0 6.43858 0 10.1955V47.5791C0 51.3361 3.20517 54.3761 7.16614 54.3761H10.7492V67.9702L31.5758 54.3761H64.4953C68.4562 54.3761 71.6614 51.3361 71.6614 47.5791V10.1955C71.6614 6.43858 68.4562 3.39851 64.4953 3.39851H28.6646V0H14.3323ZM21.4984 23.7896L26.3132 26.126L24.0738 30.5866H18.9231L16.6837 26.0198L21.4984 23.7896Z" fill="#314C1C"/>
</svg>
