<svg width="54" height="77" viewBox="0 0 54 77" fill="" xmlns="http://www.w3.org/2000/svg">
<path d="M0.0078125 0V57.75H37.1078L53.0078 77V0H0.0078125ZM25.1828 15.4C27.3773 15.4 29.1578 17.9867 29.1578 21.175C29.1578 24.3633 27.3773 26.95 25.1828 26.95C22.9883 26.95 21.2078 24.3633 21.2078 21.175C21.2078 17.9867 22.9883 15.4 25.1828 15.4ZM13.2578 42.35H7.95781C7.95781 38.109 10.3387 34.65 13.2578 34.65C13.734 34.65 14.1895 34.7703 14.6242 34.9357C13.7754 37.1465 13.2578 39.658 13.2578 42.35ZM13.2578 30.8C11.7982 30.8 10.6078 29.0705 10.6078 26.95C10.6078 24.8295 11.7982 23.1 13.2578 23.1C14.7174 23.1 15.9078 24.8295 15.9078 26.95C15.9078 29.0705 14.7174 30.8 13.2578 30.8ZM15.9078 42.35C15.9078 36.0035 19.4895 30.8 23.8578 30.8H26.5078C30.8762 30.8 34.4578 36.0035 34.4578 42.35H15.9078ZM34.4578 26.95C34.4578 24.8295 35.6482 23.1 37.1078 23.1C38.5674 23.1 39.7578 24.8295 39.7578 26.95C39.7578 29.0705 38.5674 30.8 37.1078 30.8C35.6482 30.8 34.4578 29.0705 34.4578 26.95ZM37.1078 42.35C37.1078 39.658 36.5902 37.1465 35.7414 34.9357C36.1762 34.7703 36.6316 34.65 37.1078 34.65C40.027 34.65 42.4078 38.109 42.4078 42.35H37.1078Z" fill="white"/>
</svg>
