<svg width="65" height="62" viewBox="0 0 65 62" fill="none" xmlns="http://www.w3.org/2000/svg">
<path d="M57.3291 0H7.16614C3.20685 0 0 3.04166 0 6.79701V54.3761C0 58.1315 3.20685 61.1731 7.16614 61.1731H57.3291C61.2884 61.1731 64.4953 58.1315 64.4953 54.3761V6.79701C64.4953 3.04166 61.2884 0 57.3291 0ZM21.4984 47.5791H12.4583V23.7896H21.4984V47.5791ZM16.8189 19.4293C14.0564 19.4293 12.2111 17.6824 12.2111 15.3511C12.2111 13.0197 14.0528 11.2728 17.1235 11.2728C19.886 11.2728 21.7313 13.0197 21.7313 15.3511C21.7313 17.6824 19.8896 19.4293 16.8189 19.4293ZM53.7461 47.5791H44.9962V34.5764C44.9962 30.9808 42.6636 30.1516 41.7894 30.1516C40.9151 30.1516 37.9985 30.7055 37.9985 34.5764C37.9985 35.1304 37.9985 47.5791 37.9985 47.5791H28.9584V23.7896H37.9985V27.1099C39.163 25.1727 41.4955 23.7896 45.8705 23.7896C50.2454 23.7896 53.7461 27.1099 53.7461 34.5764V47.5791Z" fill="#314C1C"/>
</svg>
