<svg width="65" height="62" viewBox="0 0 65 62" fill="none" xmlns="http://www.w3.org/2000/svg">
<path d="M17.9154 0C8.0225 0 0 7.60926 0 16.9925V44.1806C0 53.5639 8.0225 61.1731 17.9154 61.1731H46.5799C56.4728 61.1731 64.4953 53.5639 64.4953 44.1806V16.9925C64.4953 7.60926 56.4728 0 46.5799 0H17.9154ZM53.7461 6.79701C55.7239 6.79701 57.3291 8.31955 57.3291 10.1955C57.3291 12.0715 55.7239 13.594 53.7461 13.594C51.7682 13.594 50.163 12.0715 50.163 10.1955C50.163 8.31955 51.7682 6.79701 53.7461 6.79701ZM32.2476 13.594C42.1405 13.594 50.163 21.2033 50.163 30.5866C50.163 39.9698 42.1405 47.5791 32.2476 47.5791C22.3548 47.5791 14.3323 39.9698 14.3323 30.5866C14.3323 21.2033 22.3548 13.594 32.2476 13.594ZM32.2476 20.391C29.3968 20.391 26.6627 21.4652 24.6468 23.3772C22.6309 25.2893 21.4984 27.8825 21.4984 30.5866C21.4984 33.2906 22.6309 35.8839 24.6468 37.7959C26.6627 39.7079 29.3968 40.7821 32.2476 40.7821C35.0985 40.7821 37.8326 39.7079 39.8485 37.7959C41.8643 35.8839 42.9968 33.2906 42.9968 30.5866C42.9968 27.8825 41.8643 25.2893 39.8485 23.3772C37.8326 21.4652 35.0985 20.391 32.2476 20.391Z" fill="#314C1C"/>
</svg>
