<svg width="65" height="62" viewBox="0 0 65 62" fill="none" xmlns="http://www.w3.org/2000/svg">
<path d="M25.2714 16.9518L45.4477 44.2214H40.0838L19.9434 16.9518H25.2714ZM64.4953 10.1955V50.9776C64.4953 56.6089 59.6832 61.1731 53.7461 61.1731H10.7492C4.81206 61.1731 0 56.6089 0 50.9776V10.1955C0 4.5642 4.81206 0 10.7492 0H53.7461C59.6832 0 64.4953 4.5642 64.4953 10.1955ZM52.0907 47.5791L37.0919 27.222L49.3532 13.594H44.6558L34.9672 24.3333L27.0593 13.594H13.2645L27.3854 32.7378L13.9955 47.5791H18.7717L29.5245 35.63L38.3317 47.5791H52.0907Z" fill="#314C1C"/>
</svg>
