<svg width="53" height="45" viewBox="0 0 53 45" fill="none" xmlns="http://www.w3.org/2000/svg">
<path d="M29.3613 10.9007C29.2924 13.6656 29.9534 16.0022 31.3443 17.92C32.3309 19.2399 33.6912 20.1258 35.4283 20.5747C37.1374 21.0197 38.762 21.0886 40.2396 20.7827C40.6653 23.78 39.7738 26.9205 37.6273 30.2182C35.4809 33.5129 32.7457 35.966 29.4436 37.5688L34.207 44.8398C36.7385 43.658 39.1533 42.14 41.3888 40.2875C43.6556 38.4357 45.6794 36.2918 47.4916 33.8565C49.3038 31.4212 50.6864 28.6545 51.6095 25.5023C52.5326 22.35 52.8477 19.1198 52.5276 15.7793C52.1122 11.3676 50.7872 7.81343 48.5517 5.14829C46.3203 2.44866 43.487 1.05758 40.0613 0.972134C37.0451 0.8969 34.5187 1.7456 32.491 3.5436C30.483 5.30436 29.4459 7.75898 29.3673 10.9103L29.3613 10.9007ZM0.843061 10.1894C0.774097 12.9542 1.43516 15.2909 2.82601 17.2087C3.81205 18.5537 5.17851 19.4429 6.90969 19.8791C8.65032 20.3123 10.2533 20.3712 11.7214 20.0683C12.1479 23.0341 11.2873 26.1879 9.13429 29.4981C6.98831 32.7771 4.25945 35.2241 0.957098 36.8394L5.70746 44.1289C8.239 42.9471 10.6382 41.4288 12.8893 39.5766C15.177 37.6971 17.221 35.5364 18.9734 33.1452C20.7731 30.7064 22.1369 27.9424 23.06 24.7902C23.993 21.6401 24.3059 18.3375 23.9812 15.0673C23.572 10.6557 22.2533 7.1017 20.0241 4.43672C17.7984 1.75925 14.9743 0.374687 11.5486 0.28924C8.52613 0.21385 5.99977 1.06254 3.97212 2.8574C1.96721 4.61824 0.920802 7.07262 0.842199 10.2239L0.843061 10.1894Z" fill="white"/>
</svg>
