<svg width="52" height="44" viewBox="0 0 52 44" fill="none" xmlns="http://www.w3.org/2000/svg">
<path d="M23.4729 33.8077C23.4729 31.042 22.7538 28.7226 21.3155 26.84C20.2962 25.5451 18.9143 24.6934 17.1665 24.288C15.4469 23.8857 13.821 23.8574 12.3515 24.2C11.8513 21.2143 12.6642 18.0526 14.7278 14.7023C16.7913 11.3551 19.4646 8.83457 22.7256 7.15L17.7825 0C15.2812 1.24457 12.905 2.82229 10.7163 4.73C8.49644 6.63771 6.52668 8.83143 4.77578 11.3111C3.02489 13.7909 1.71171 16.5911 0.867531 19.7654C0.0233479 22.9397 -0.211147 26.1769 0.192185 29.5083C0.717454 33.9083 2.13068 37.4283 4.43186 40.0369C6.72991 42.68 9.59701 44 13.0238 44C16.0409 44 18.5453 43.0886 20.5276 41.2406C22.4911 39.4303 23.4666 36.9506 23.4666 33.7983L23.4729 33.8077ZM52 33.8077C52 31.042 51.2809 28.7226 49.8426 26.84C48.8234 25.52 47.4352 24.6651 45.6936 24.2723C43.9427 23.8826 42.3388 23.8637 40.8787 24.2031C40.3784 21.2489 41.1601 18.0746 43.2299 14.7117C45.2934 11.3803 47.9604 8.866 51.2215 7.16886L46.2908 0C43.7895 1.24457 41.429 2.82229 39.2247 4.73C36.9846 6.66598 34.9951 8.87698 33.3029 11.3111C31.5645 13.794 30.2701 16.5911 29.4259 19.7654C28.5718 22.9378 28.3413 26.2472 28.7475 29.5083C29.2665 33.9083 30.6734 37.4283 32.9684 40.0369C35.2602 42.658 38.1179 43.9717 41.5446 43.9717C44.5681 43.9717 47.0725 43.0603 49.0547 41.2154C51.0151 39.4051 52 36.9254 52 33.7731V33.8077Z" fill="white"/>
</svg>
