<svg width="59" height="69" viewBox="0 0 59 69" fill="none" xmlns="http://www.w3.org/2000/svg">
<path d="M0 61.5643V47.8834C0 43.152 1.59846 39.1184 4.79539 35.7826C7.99231 32.4467 11.8568 30.7799 16.3889 30.7822H51.5431C53.619 30.7822 55.3813 31.5232 56.8301 33.0053C58.2789 34.4874 59.0022 36.3116 59 38.4777C59 40.2448 58.481 41.8273 57.443 43.225C56.4051 44.6227 55.094 45.5485 53.5097 46.0022L45.8889 48.3109V61.5643C45.8889 62.7614 45.6299 63.8445 45.1121 64.8136C44.5942 65.7826 43.8971 66.5807 43.0208 67.2077C42.1468 67.8348 41.1907 68.2201 40.1528 68.3638C39.1148 68.5074 38.0495 68.3501 36.9569 67.8918L21.4694 61.5643H0ZM39.3333 51.3036H20.8958C20.5134 51.3036 20.2261 51.4176 20.0338 51.6456C19.8415 51.8737 19.7191 52.1302 19.6667 52.4152C19.612 52.7002 19.6536 52.9716 19.7912 53.2292C19.9289 53.4869 20.1605 53.6716 20.4861 53.7833L39.3333 61.5643V51.3036ZM6.55555 54.7239H13.4389C13.3296 54.3818 13.2477 54.0398 13.1931 53.6978C13.1384 53.3558 13.1111 52.9852 13.1111 52.5862C13.1111 50.3631 13.8759 48.4534 15.4056 46.8573C16.9352 45.2612 18.7653 44.4631 20.8958 44.4631H34.2528L51.7889 39.4183C52.062 39.3043 52.2532 39.1618 52.3625 38.9907C52.4718 38.8197 52.4991 38.6202 52.4444 38.3922C52.3898 38.1642 52.2937 37.9784 52.156 37.8347C52.0183 37.6911 51.8151 37.6204 51.5463 37.6227H16.3889C13.6574 37.6227 11.3356 38.6202 9.42361 40.6154C7.51157 42.6105 6.55555 45.0332 6.55555 47.8834V54.7239ZM22.9444 27.3619C19.3389 27.3619 16.2523 26.0223 13.6847 23.3431C11.1171 20.664 9.83333 17.4432 9.83333 13.681C9.83333 9.9187 11.1171 6.69797 13.6847 4.01878C16.2523 1.33959 19.3389 0 22.9444 0C26.55 0 29.6366 1.33959 32.2042 4.01878C34.7718 6.69797 36.0556 9.9187 36.0556 13.681C36.0556 17.4432 34.7718 20.664 32.2042 23.3431C29.6366 26.0223 26.55 27.3619 22.9444 27.3619ZM22.9444 20.5214C24.7472 20.5214 26.2911 19.8511 27.5759 18.5103C28.8608 17.1696 29.5022 15.5598 29.5 13.681C29.5 11.7998 28.8576 10.1889 27.5727 8.84816C26.2878 7.50743 24.745 6.8382 22.9444 6.84048C21.1417 6.84048 19.5978 7.51085 18.3129 8.85158C17.0281 10.1923 16.3867 11.8021 16.3889 13.681C16.3889 15.5621 17.0313 17.173 18.3162 18.5138C19.6011 19.8545 21.1439 20.5237 22.9444 20.5214Z" fill="#DCAE96"/>
</svg>
